# Blender v2.80 (sub 75) OBJ File: 'tree_pine.blend'
# www.blender.org
o Pine_Cube
v 0.000000 0.969540 -0.083264
v -0.000000 1.141755 0.000000
v 0.072109 0.969540 -0.041632
v 0.072109 0.969540 0.041632
v -0.000000 0.969540 0.083264
v -0.072109 0.969540 0.041632
v -0.072109 0.969540 -0.041632
v 0.000000 0.853821 -0.203998
v 0.176667 0.853821 -0.101999
v 0.176667 0.853821 0.101999
v -0.000000 0.853821 0.203998
v -0.176667 0.853821 0.101999
v -0.176667 0.853821 -0.101999
v 0.044047 0.000000 -0.023635
v 0.000000 0.000000 -0.054654
v 0.000000 0.035606 -0.037739
v -0.000000 0.949969 -0.026475
v 0.024883 0.035606 -0.015178
v 0.022928 0.949969 -0.013237
v 0.032683 0.035606 0.018869
v 0.022928 0.949969 0.013237
v -0.000000 0.035606 0.037739
v -0.000000 0.949969 0.026475
v -0.037223 0.035606 0.018869
v -0.022928 0.949969 0.013237
v -0.030618 0.039116 -0.012995
v -0.022928 0.949969 -0.013237
v 0.047332 0.000000 0.027327
v -0.000919 0.000000 0.067415
v -0.055234 0.000000 0.029536
v -0.047332 0.000000 -0.027327
v -0.000245 0.476897 -0.030206
v 0.023741 0.480821 -0.012521
v 0.027784 0.488691 0.017473
v 0.000059 0.493877 0.033462
v -0.030088 0.490650 0.017623
v -0.026910 0.484564 -0.011420
v -0.128358 0.829716 0.000000
v -0.000000 1.037390 0.000000
v -0.064179 0.829716 -0.111161
v 0.064179 0.829716 -0.111161
v 0.128358 0.829716 0.000000
v 0.064179 0.829716 0.111161
v -0.064179 0.829716 0.111161
v -0.244565 0.689927 0.000000
v -0.122283 0.689927 -0.211800
v 0.122283 0.689927 -0.211800
v 0.244565 0.689927 0.000000
v 0.122283 0.689927 0.211800
v -0.122283 0.689927 0.211800
v 0.000000 0.684472 0.171073
v -0.000000 0.951321 0.000000
v -0.148154 0.684472 0.085537
v -0.148154 0.684472 -0.085537
v -0.000000 0.684472 -0.171073
v 0.148154 0.684472 -0.085537
v 0.148154 0.684472 0.085537
v 0.000000 0.473870 0.325952
v -0.282283 0.473870 0.162976
v -0.282283 0.473870 -0.162976
v -0.000000 0.473870 -0.325952
v 0.282283 0.473870 -0.162976
v 0.282283 0.473870 0.162976
v 0.188479 0.486034 0.000000
v -0.000000 0.937817 0.000000
v 0.094239 0.486034 0.163227
v -0.094239 0.486034 0.163227
v -0.188479 0.486034 -0.000000
v -0.094239 0.486034 -0.163227
v 0.094239 0.486034 -0.163227
v 0.359115 0.246578 -0.000000
v 0.179557 0.246578 0.311003
v -0.179558 0.246578 0.311003
v -0.359115 0.246578 -0.000000
v -0.179557 0.246578 -0.311003
v 0.179557 0.246578 -0.311003
v 0.000000 0.969540 -0.083264
v -0.000000 1.141755 0.000000
v 0.072109 0.969540 -0.041632
v 0.072109 0.969540 0.041632
v -0.000000 0.969540 0.083264
v -0.072109 0.969540 0.041632
v -0.072109 0.969540 -0.041632
v 0.000000 0.853821 -0.203998
v 0.176667 0.853821 -0.101999
v 0.176667 0.853821 0.101999
v -0.000000 0.853821 0.203998
v -0.176667 0.853821 0.101999
v -0.176667 0.853821 -0.101999
v -0.128358 0.829716 0.000000
v -0.000000 1.037390 0.000000
v -0.064179 0.829716 -0.111161
v 0.064179 0.829716 -0.111161
v 0.128358 0.829716 0.000000
v 0.064179 0.829716 0.111161
v -0.064179 0.829716 0.111161
v -0.244565 0.689927 0.000000
v -0.122283 0.689927 -0.211800
v 0.122283 0.689927 -0.211800
v 0.244565 0.689927 0.000000
v 0.122283 0.689927 0.211800
v -0.122283 0.689927 0.211800
v 0.000000 0.684472 0.171073
v -0.000000 0.951321 0.000000
v -0.148154 0.684472 0.085537
v -0.148154 0.684472 -0.085537
v -0.000000 0.684472 -0.171073
v 0.148154 0.684472 -0.085537
v 0.148154 0.684472 0.085537
v 0.000000 0.473870 0.325952
v -0.282283 0.473870 0.162976
v -0.282283 0.473870 -0.162976
v -0.000000 0.473870 -0.325952
v 0.282283 0.473870 -0.162976
v 0.282283 0.473870 0.162976
v 0.188479 0.486034 0.000000
v -0.000000 0.937817 0.000000
v 0.094239 0.486034 0.163227
v -0.094239 0.486034 0.163227
v -0.188479 0.486034 -0.000000
v -0.094239 0.486034 -0.163227
v 0.094239 0.486034 -0.163227
v 0.359115 0.246578 -0.000000
v 0.179557 0.246578 0.311003
v -0.179558 0.246578 0.311003
v -0.359115 0.246578 -0.000000
v -0.179557 0.246578 -0.311003
v 0.179557 0.246578 -0.311003
vt 0.437623 0.750295
vt 0.500000 0.642254
vt 0.562377 0.750295
vt 0.624755 0.642254
vt 0.562377 0.534213
vt 0.437622 0.534213
vt 0.375245 0.642254
vt 0.906832 0.642254
vt 0.703416 0.994581
vt 0.093168 0.642254
vt 0.296584 0.994581
vt 0.296584 0.289927
vt 0.703416 0.289927
vt 0.115603 0.094399
vt -0.000000 0.140919
vt -0.000000 0.094399
vt 1.000000 0.187439
vt 0.557801 0.233959
vt 0.557801 0.187439
vt 0.115603 0.187439
vt 0.115603 0.140919
vt 1.000000 0.233959
vt 0.557801 0.280478
vt 0.115603 0.047880
vt -0.000000 0.047880
vt 1.000000 0.001360
vt 0.557801 0.047880
vt 0.557801 0.001360
vt -0.000000 0.001360
vt 0.115603 0.001360
vt 1.000000 0.094399
vt 0.557801 0.094399
vt 1.000000 0.140919
vt 0.557801 0.140919
vt -0.000000 0.233959
vt -0.000000 0.187439
vt 0.115603 0.280478
vt 0.115603 0.233959
vt 0.437623 0.750295
vt 0.500000 0.642254
vt 0.562377 0.750295
vt 0.624755 0.642254
vt 0.562377 0.534213
vt 0.437622 0.534213
vt 0.375245 0.642254
vt 0.906832 0.642254
vt 0.703416 0.994581
vt 0.296584 0.994581
vt 0.093168 0.642254
vt 0.296584 0.289927
vt 0.703416 0.289927
vt 0.437623 0.750295
vt 0.500000 0.642254
vt 0.562377 0.750295
vt 0.624755 0.642254
vt 0.562377 0.534213
vt 0.437622 0.534213
vt 0.375245 0.642254
vt 0.906832 0.642254
vt 0.703416 0.994581
vt 0.093168 0.642254
vt 0.296584 0.994581
vt 0.296584 0.289927
vt 0.703416 0.289927
vt 0.437623 0.750295
vt 0.500000 0.642254
vt 0.562377 0.750295
vt 0.624755 0.642254
vt 0.562377 0.534213
vt 0.437622 0.534213
vt 0.375245 0.642254
vt 0.906832 0.642254
vt 0.703416 0.994581
vt 0.296584 0.994581
vt 0.093168 0.642254
vt 0.296584 0.289927
vt 0.703416 0.289927
vt 0.437623 0.750295
vt 0.562377 0.750295
vt 0.500000 0.642254
vt 0.624755 0.642254
vt 0.562377 0.534213
vt 0.437622 0.534213
vt 0.375245 0.642254
vt 0.906832 0.642254
vt 0.703416 0.994581
vt 0.296584 0.994581
vt 0.296584 0.289927
vt 0.703416 0.289927
vt 0.437623 0.750295
vt 0.562377 0.750295
vt 0.500000 0.642254
vt 0.624755 0.642254
vt 0.562377 0.534213
vt 0.437622 0.534213
vt 0.375245 0.642254
vt 0.703416 0.289927
vt 0.703416 0.994581
vt 0.296584 0.994581
vt 0.093168 0.642254
vt 0.437623 0.750295
vt 0.562377 0.750295
vt 0.500000 0.642254
vt 0.624755 0.642254
vt 0.562377 0.534213
vt 0.437622 0.534213
vt 0.375245 0.642254
vt 0.906832 0.642254
vt 0.703416 0.994581
vt 0.296584 0.994581
vt 0.093168 0.642254
vt 0.296584 0.289927
vt 0.437623 0.750295
vt 0.562377 0.750295
vt 0.500000 0.642254
vt 0.624755 0.642254
vt 0.562377 0.534213
vt 0.437622 0.534213
vt 0.375245 0.642254
vt 0.906832 0.642254
vt 0.703416 0.994581
vt 0.093168 0.642254
vt 0.296584 0.994581
vt 0.296584 0.289927
vt 1.000000 0.280478
vt 1.000000 0.047880
vt -0.000000 0.280478
vt 0.093168 0.642254
vt 0.906832 0.642254
vt 0.296584 0.289927
vt 0.703416 0.289927
vt 0.703416 0.289927
vn 0.0000 0.6167 -0.7871
vn 0.0000 1.0000 0.0000
vn 0.6817 0.6167 -0.3936
vn 0.6817 0.6167 0.3936
vn 0.0000 0.6167 0.7871
vn -0.6817 0.6167 0.3936
vn -0.6817 0.6167 -0.3936
vn 0.5992 0.7219 0.3460
vn 0.5992 0.7219 -0.3460
vn -0.5992 0.7219 -0.3460
vn 0.0000 0.7219 -0.6919
vn -0.5992 0.7219 0.3460
vn 0.0000 0.7219 0.6919
vn -0.8527 0.3096 0.4207
vn -0.7392 0.4614 -0.4906
vn -0.7576 0.5366 0.3715
vn 0.0004 0.0005 -1.0000
vn 0.8590 0.0068 -0.5118
vn 0.0113 0.0085 -0.9999
vn 0.0429 0.3021 -0.9523
vn -0.8314 0.2541 -0.4942
vn 0.8643 0.0056 -0.5030
vn 0.8971 0.0094 0.4417
vn 0.0407 0.3333 0.9419
vn 0.0222 0.6397 0.7682
vn 0.8664 0.0138 0.4992
vn 0.0196 0.0132 0.9997
vn 0.7953 0.4667 0.3869
vn 0.8738 0.2720 0.4030
vn -0.8655 0.0167 0.5006
vn -0.8824 0.0140 0.4702
vn -0.8636 0.0093 -0.5040
vn -0.8596 0.0104 -0.5108
vn 0.7799 0.4501 -0.4348
vn 0.0357 0.4288 -0.9027
vn 0.8249 0.2787 -0.4917
vn -0.8038 0.5949 0.0000
vn -0.4019 0.5949 -0.6961
vn 0.4019 0.5949 -0.6961
vn 0.8038 0.5949 0.0000
vn 0.4019 0.5949 0.6961
vn -0.4019 0.5949 0.6961
vn 0.3845 0.6392 -0.6659
vn -0.3845 0.6392 -0.6659
vn -0.7690 0.6392 0.0000
vn -0.3845 0.6392 0.6659
vn 0.3845 0.6392 0.6659
vn 0.7690 0.6392 0.0000
vn 0.0000 0.5712 0.8208
vn -0.7108 0.5712 0.4104
vn -0.7108 0.5712 -0.4104
vn 0.0000 0.5712 -0.8208
vn 0.7108 0.5712 -0.4104
vn 0.7108 0.5712 0.4104
vn -0.6977 0.5924 -0.4028
vn -0.6977 0.5924 0.4028
vn 0.6977 0.5924 0.4028
vn 0.0000 0.5924 0.8056
vn 0.6977 0.5924 -0.4028
vn 0.0000 0.5924 -0.8056
vn 0.8651 0.5016 0.0000
vn 0.4325 0.5016 0.7492
vn -0.4325 0.5016 0.7492
vn -0.8651 0.5016 0.0000
vn -0.4325 0.5016 -0.7492
vn 0.4325 0.5016 -0.7492
vn -0.4072 0.5803 0.7053
vn 0.4072 0.5803 0.7053
vn 0.8144 0.5803 0.0000
vn 0.4072 0.5803 -0.7053
vn -0.4072 0.5803 -0.7053
vn -0.8144 0.5803 0.0000
vn 0.0000 -0.6167 0.7871
vn -0.6817 -0.6167 0.3936
vn 0.0000 -1.0000 0.0000
vn -0.6817 -0.6167 -0.3936
vn 0.0000 -0.6167 -0.7871
vn 0.6817 -0.6167 -0.3936
vn 0.6817 -0.6167 0.3936
vn -0.5992 -0.7219 -0.3460
vn -0.5992 -0.7219 0.3460
vn 0.0000 -0.7219 0.6919
vn 0.5992 -0.7219 -0.3460
vn 0.0000 -0.7219 -0.6919
vn 0.8038 -0.5949 0.0000
vn 0.4019 -0.5949 0.6961
vn -0.4019 -0.5949 0.6961
vn -0.8038 -0.5949 0.0000
vn -0.4019 -0.5949 -0.6961
vn 0.4019 -0.5949 -0.6961
vn -0.7690 -0.6392 0.0000
vn 0.3845 -0.6392 0.6659
vn 0.7690 -0.6392 0.0000
vn 0.3845 -0.6392 -0.6659
vn 0.0000 -0.5712 -0.8208
vn 0.7108 -0.5712 -0.4104
vn 0.7108 -0.5712 0.4104
vn 0.0000 -0.5712 0.8208
vn -0.7108 -0.5712 0.4104
vn -0.7108 -0.5712 -0.4104
vn 0.6977 -0.5924 0.4028
vn 0.6977 -0.5924 -0.4028
vn 0.0000 -0.5924 -0.8056
vn -0.6977 -0.5924 -0.4028
vn -0.6977 -0.5924 0.4028
vn -0.8651 -0.5016 0.0000
vn -0.4325 -0.5016 -0.7492
vn 0.4325 -0.5016 -0.7492
vn 0.8651 -0.5016 0.0000
vn 0.4325 -0.5016 0.7492
vn -0.4325 -0.5016 0.7492
vn 0.4072 -0.5803 -0.7053
vn -0.4072 -0.5803 -0.7053
vn -0.4072 -0.5803 0.7053
vn -0.8144 -0.5803 0.0000
vn 0.4072 -0.5803 0.7053
vn -0.0000 0.0153 0.9999
vn 0.5992 -0.7219 0.3460
vn -0.3845 -0.6392 0.6659
vn -0.3845 -0.6392 -0.6659
vn 0.0000 -0.5924 0.8056
vn 0.8144 -0.5803 0.0000
s 1
f 1/1/1 2/2/2 3/3/3
f 3/3/3 2/2/2 4/4/4
f 4/4/4 2/2/2 5/5/5
f 5/5/5 2/2/2 6/6/6
f 6/6/6 2/2/2 7/7/7
f 7/7/7 2/2/2 1/1/1
f 5/5/5 10/8/8 4/4/4
f 4/4/4 9/9/9 3/3/3
f 1/1/1 13/10/10 7/7/7
f 3/3/3 8/11/11 1/1/1
f 6/6/6 13/10/10 12/12/12
f 6/6/6 11/13/13 5/5/5
f 24/14/14 31/15/15 30/16/16
f 17/17/17 33/18/18 32/19/19
f 16/20/20 31/15/15 26/21/21
f 19/22/22 34/23/23 33/18/18
f 22/24/24 30/16/16 29/25/25
f 21/26/26 35/27/27 34/28/23
f 22/24/24 28/29/28 20/30/29
f 35/27/27 25/31/30 36/32/31
f 36/32/31 27/33/32 37/34/33
f 16/20/20 14/35/34 15/36/35
f 37/34/33 17/17/17 32/19/19
f 20/37/29 14/35/34 18/38/36
f 26/21/21 32/19/19 16/20/20
f 24/14/14 37/34/33 26/21/21
f 22/24/24 36/32/31 24/14/14
f 34/28/23 22/24/24 20/30/29
f 33/18/18 20/37/29 18/38/36
f 32/19/19 18/38/36 16/20/20
f 38/39/37 39/40/2 40/41/38
f 40/41/38 39/40/2 41/42/39
f 41/42/39 39/40/2 42/43/40
f 42/43/40 39/40/2 43/44/41
f 43/44/41 39/40/2 44/45/42
f 44/45/42 39/40/2 38/39/37
f 42/43/40 47/46/43 41/42/39
f 41/42/39 46/47/44 40/41/38
f 44/45/42 45/48/45 50/49/46
f 40/41/38 45/48/45 38/39/37
f 43/44/41 50/49/46 49/50/47
f 43/44/41 48/51/48 42/43/40
f 51/52/49 52/53/2 53/54/50
f 53/54/50 52/53/2 54/55/51
f 54/55/51 52/53/2 55/56/52
f 55/56/52 52/53/2 56/57/53
f 56/57/53 52/53/2 57/58/54
f 57/58/54 52/53/2 51/52/49
f 55/56/52 60/59/55 54/55/51
f 54/55/51 59/60/56 53/54/50
f 51/52/49 63/61/57 57/58/54
f 51/52/49 59/60/56 58/62/58
f 56/57/53 63/61/57 62/63/59
f 55/56/52 62/63/59 61/64/60
f 64/65/61 65/66/2 66/67/62
f 66/67/62 65/66/2 67/68/63
f 67/68/63 65/66/2 68/69/64
f 68/69/64 65/66/2 69/70/65
f 69/70/65 65/66/2 70/71/66
f 70/71/66 65/66/2 64/65/61
f 68/69/64 73/72/67 67/68/63
f 67/68/63 72/73/68 66/67/62
f 70/71/66 71/74/69 76/75/70
f 66/67/62 71/74/69 64/65/61
f 69/70/65 76/75/70 75/76/71
f 68/69/64 75/76/71 74/77/72
f 77/78/73 79/79/74 78/80/75
f 79/79/74 80/81/76 78/80/75
f 80/81/76 81/82/77 78/80/75
f 81/82/77 82/83/78 78/80/75
f 82/83/78 83/84/79 78/80/75
f 83/84/79 77/78/73 78/80/75
f 86/85/80 81/82/77 80/81/76
f 85/86/81 80/81/76 79/79/74
f 83/84/79 84/87/82 77/78/73
f 84/87/82 79/79/74 77/78/73
f 88/88/83 83/84/79 82/83/78
f 87/89/84 82/83/78 81/82/77
f 90/90/85 92/91/86 91/92/75
f 92/91/86 93/93/87 91/92/75
f 93/93/87 94/94/88 91/92/75
f 94/94/88 95/95/89 91/92/75
f 95/95/89 96/96/90 91/92/75
f 96/96/90 90/90/85 91/92/75
f 93/93/87 100/97/91 94/94/88
f 98/98/92 93/93/87 92/91/86
f 96/96/90 97/99/93 90/90/85
f 97/99/93 92/91/86 90/90/85
f 95/95/89 102/100/94 96/96/90
f 100/97/91 95/95/89 94/94/88
f 103/101/95 105/102/96 104/103/75
f 105/102/96 106/104/97 104/103/75
f 106/104/97 107/105/98 104/103/75
f 107/105/98 108/106/99 104/103/75
f 108/106/99 109/107/100 104/103/75
f 109/107/100 103/101/95 104/103/75
f 112/108/101 107/105/98 106/104/97
f 111/109/102 106/104/97 105/102/96
f 109/107/100 110/110/103 103/101/95
f 110/110/103 105/102/96 103/101/95
f 108/106/99 115/111/104 109/107/100
f 107/105/98 114/112/105 108/106/99
f 116/113/106 118/114/107 117/115/75
f 118/114/107 119/116/108 117/115/75
f 119/116/108 120/117/109 117/115/75
f 120/117/109 121/118/110 117/115/75
f 121/118/110 122/119/111 117/115/75
f 122/119/111 116/113/106 117/115/75
f 125/120/112 120/117/109 119/116/108
f 124/121/113 119/116/108 118/114/107
f 128/122/114 116/113/106 122/119/111
f 123/123/115 118/114/107 116/113/106
f 121/118/110 128/122/114 122/119/111
f 120/117/109 127/124/116 121/118/110
f 5/5/5 11/13/13 10/8/8
f 4/4/4 10/8/8 9/9/9
f 1/1/1 8/11/11 13/10/10
f 3/3/3 9/9/9 8/11/11
f 6/6/6 7/7/7 13/10/10
f 6/6/6 12/12/12 11/13/13
f 24/14/14 26/21/21 31/15/15
f 17/17/17 19/22/22 33/18/18
f 16/20/20 15/36/35 31/15/15
f 19/22/22 21/125/26 34/23/23
f 22/24/24 24/14/14 30/16/16
f 21/26/26 23/126/117 35/27/27
f 22/24/24 29/25/25 28/29/28
f 35/27/27 23/126/117 25/31/30
f 36/32/31 25/31/30 27/33/32
f 16/20/20 18/38/36 14/35/34
f 37/34/33 27/33/32 17/17/17
f 20/37/29 28/127/28 14/35/34
f 26/21/21 37/34/33 32/19/19
f 24/14/14 36/32/31 37/34/33
f 22/24/24 35/27/27 36/32/31
f 34/28/23 35/27/27 22/24/24
f 33/18/18 34/23/23 20/37/29
f 32/19/19 33/18/18 18/38/36
f 42/43/40 48/51/48 47/46/43
f 41/42/39 47/46/43 46/47/44
f 44/45/42 38/39/37 45/48/45
f 40/41/38 46/47/44 45/48/45
f 43/44/41 44/45/42 50/49/46
f 43/44/41 49/50/47 48/51/48
f 55/56/52 61/64/60 60/59/55
f 54/55/51 60/59/55 59/60/56
f 51/52/49 58/62/58 63/61/57
f 51/52/49 53/54/50 59/60/56
f 56/57/53 57/58/54 63/61/57
f 55/56/52 56/57/53 62/63/59
f 68/69/64 74/77/72 73/72/67
f 67/68/63 73/72/67 72/73/68
f 70/71/66 64/65/61 71/74/69
f 66/67/62 72/73/68 71/74/69
f 69/70/65 70/71/66 76/75/70
f 68/69/64 69/70/65 75/76/71
f 86/85/80 87/89/84 81/82/77
f 85/86/81 86/85/80 80/81/76
f 83/84/79 89/128/118 84/87/82
f 84/87/82 85/86/81 79/79/74
f 88/88/83 89/128/118 83/84/79
f 87/89/84 88/88/83 82/83/78
f 93/93/87 99/129/119 100/97/91
f 98/98/92 99/129/119 93/93/87
f 96/96/90 102/100/94 97/99/93
f 97/99/93 98/98/92 92/91/86
f 95/95/89 101/130/120 102/100/94
f 100/97/91 101/130/120 95/95/89
f 112/108/101 113/131/121 107/105/98
f 111/109/102 112/108/101 106/104/97
f 109/107/100 115/111/104 110/110/103
f 110/110/103 111/109/102 105/102/96
f 108/106/99 114/112/105 115/111/104
f 107/105/98 113/131/121 114/112/105
f 125/120/112 126/132/122 120/117/109
f 124/121/113 125/120/112 119/116/108
f 128/122/114 123/123/115 116/113/106
f 123/123/115 124/121/113 118/114/107
f 121/118/110 127/124/116 128/122/114
f 120/117/109 126/132/122 127/124/116
